<svg enable-background="new 0 0 520 500" viewBox="0 0 520 500" xmlns="http://www.w3.org/2000/svg" xmlns:xlink="http://www.w3.org/1999/xlink"><linearGradient id="a"><stop offset=".25" stop-color="#ff6400"/><stop offset="1" stop-color="#f00"/></linearGradient><linearGradient id="b" gradientUnits="userSpaceOnUse" x1="-7.058" x2="512.942" xlink:href="#a" y1="170.6263" y2="170.6263"/><linearGradient id="c" gradientUnits="userSpaceOnUse" x1="74.729" x2="311.095" xlink:href="#a" y1="150.9708" y2="150.9708"/><path d="m434 182.8c0 48.1-42.1 87.3-93.8 87.3-15.8 0-32.1-.1-48.6-.1-72.6-.3-147.7-.6-213 4.2l-6.8.5v-127.8c0-48.1 42.1-87.3 93.8-87.3h174.5c51.7 0 93.8 39.1 93.8 87.3zm-93.8-201.3h-174.5c-95.3 0-172.8 71.5-172.8 159.5v218.8c22.8-3.4 102.9-11.7 347.3-11.5 48.3 0 92.3-16.6 124.2-46.8 31.1-29.2 48.7-70 48.5-112.6v-47.9c0-88-77.5-159.5-172.7-159.5" fill="#fff" transform="translate(7.058 22.647)"/><path d="m198.2 112.6-42.1.4c-44.8 2.1-80.3 38-81.4 82.3v.7c15.3-1.9 34.1-6 121.7-6.6l33.3-.3c44.8-2.1 80.3-38 81.4-82.3v-.7c-14.8 1.8-32.7 5.7-112.9 6.5" fill="#fff" transform="translate(178.888 299.937)"/><path d="m434 182.8c0 48.1-42.1 87.3-93.8 87.3-15.8 0-32.1-.1-48.6-.1-72.6-.3-147.7-.6-213 4.2l-6.8.5v-127.8c0-48.1 42.1-87.3 93.8-87.3h174.5c51.7 0 93.8 39.1 93.8 87.3zm-93.8-201.3h-174.5c-95.3 0-172.8 71.5-172.8 159.5v218.8c22.8-3.4 102.9-11.7 347.3-11.5 48.3 0 92.3-16.6 124.2-46.8 31.1-29.2 48.7-70 48.5-112.6v-47.9c0-88-77.5-159.5-172.7-159.5" fill="url(#b)" transform="translate(7.058 22.647)"/><path d="m198.2 112.6-42.1.4c-44.8 2.1-80.3 38-81.4 82.3v.7c15.3-1.9 34.1-6 121.7-6.6l33.3-.3c44.8-2.1 80.3-38 81.4-82.3v-.7c-14.8 1.8-32.7 5.7-112.9 6.5" fill="url(#c)" transform="translate(178.888 299.937)"/></svg>